# xmcd
#
# Track frame offsets:
#	150
#	10491
#	20105
#	33342
#	48885
#	60562
#	75307
#	82831
#	94005
#	105894
#	116856
#	130232
#	142076
#	155844
#	166548
#	178866
#	195780
#	205286
#	217157
#	232322
#	242947
#	253623
#	265723
#	278155
#	292083
#	302228
#	313654
#
# Disc length: 4355 seconds
#
# Revision: 0
# Processed by: cddbd v1.4b41PL1 Copyright (c) Steve Scherf et al.
# Submitted via: audiograbber 1.80
#
DISCID=8211011b
DTITLE=Jim Croce - Very Best Of Jim Croce
DYEAR=1900
DGENRE=
TTITLE0=A Long Time Ago
TTITLE1=Alabama Rain
TTITLE2=Big Bad Leroy Brown
TTITLE3=Chain Gang Medley
TTITLE4=Dreamin' Again
TTITLE5=Five Short Minutes
TTITLE6=Good Time Man Like Me
TTITLE7=It Doesn't Have To Be That Way
TTITLE8=I Remember Mary
TTITLE9=I'll Have To Say I Love You In A Song
TTITLE10=Lovers Cross
TTITLE11=Mississippi Lady
TTITLE12=New York's Not My Home
TTITLE13=Old Man River
TTITLE14=One Less Set Of Footsteps
TTITLE15=Operator (That's Not The Way I Feel)
TTITLE16=Photographs And Memories
TTITLE17=Rapid Roy (The Stock Car Boy)
TTITLE18=Roller Derby Queen
TTITLE19=Speedball Trucker
TTITLE20=Time In A Bottle
TTITLE21=Top Hat, Bar and Grill
TTITLE22=Walkin' Back To Georgia
TTITLE23=What The Hell
TTITLE24=Which Way Are You Going
TTITLE25=Workin' At The Car Wash Blues
TTITLE26=You Don't Mess Around With Jim
EXTD=
EXTT0=
EXTT1=
EXTT2=
EXTT3=
EXTT4=
EXTT5=
EXTT6=
EXTT7=
EXTT8=
EXTT9=
EXTT10=
EXTT11=
EXTT12=
EXTT13=
EXTT14=
EXTT15=
EXTT16=
EXTT17=
EXTT18=
EXTT19=
EXTT20=
EXTT21=
EXTT22=
EXTT23=
EXTT24=
EXTT25=
EXTT26=
PLAYORDER=
